:FULLY-SPECIFIED
:FORCE-ALL-JOINTS-BE-3DOF
:DEGREES
272
root 8.31725 16.1935 -25.2039 21.0962 68.9904 18.8677
lfemur -24.4231 7.7101 -22.9181
ltibia 40.6019 -0 0
lfoot -6.16411 -21.3854 0.00490504
ltoes 64.1261 -0 0
rfemur -52.2854 -6.19669 12.5785
rtibia 85.8334 -0 0
rfoot 8.60075 0.445099 0.0277717
rtoes 1.71704 -0 0
lowerback 6.45565 -4.37015 -2.6142
upperback 1.44812 -5.99741 -1.97646
thorax -2.05377 -2.96102 -0.0951038
lowerneck -5.33531 -11.1891 -4.59915
upperneck 0.802339 -14.7763 5.21384
head 1.94543 -7.30053 1.85166
lclavicle 0 0 0
lhumerus -44.9651 -35.6241 107.168
lradius 59.2671 -0 0
lwrist 20.211 0 0
lhand 18.7741 14.7794 0.00675384
lfingers 0 -0 0
lthumb 43.389 38.8666 -4.22054e-05
rclavicle 0 0 0
rhumerus -53.6149 2.43269 -94.3934
rradius 43.029 -0 0
rwrist 24.3151 0 0
rhand -17.6088 -0.554209 -0.637933
rfingers 0 -0 0
rthumb 8.63302 -30.0421 -0.540462
273
root 8.37837 16.1679 -25.1647 22.0119 69.9202 20.1092
lfemur -24.202 7.33488 -23.0053
ltibia 41.2174 -0 0
lfoot -6.25618 -21.9959 0.00294291
ltoes 63.8891 -0 0
rfemur -53.4849 -5.81321 13.5437
rtibia 84.2204 -0 0
rfoot 7.98615 -0.0726136 0.0166619
rtoes 1.5465 -0 0
lowerback 6.59676 -4.49128 -2.66481
upperback 1.59362 -6.16045 -2.0539
thorax -1.98295 -3.04211 -0.129515
lowerneck -5.15779 -11.255 -4.71957
upperneck 0.736203 -14.8694 5.41861
head 1.92609 -7.34672 1.94086
lclavicle 0 0 0
lhumerus -44.7749 -35.6325 106.907
lradius 59.1919 -0 0
lwrist 20.2625 0 0
lhand 19.263 14.9376 0.0040522
lfingers 0 -0 0
lthumb 43.8464 38.8656 -2.53227e-05
rclavicle 0 0 0
rhumerus -54.4166 3.21336 -95.7199
rradius 44.5784 -0 0
rwrist 23.8771 0 0
rhand -21.1822 1.48267 -0.382098
rfingers 0 -0 0
rthumb 5.19155 -28.2494 -0.323779
274
root 8.4395 16.1423 -25.1255 23.0313 70.8426 21.4534
lfemur -23.9806 6.96001 -23.0939
ltibia 41.8329 0 0
lfoot -6.34822 -22.6063 0
ltoes 63.6522 0 0
rfemur -54.677 -5.40979 14.4999
rtibia 82.6074 0 0
rfoot 7.37167 -0.590177 0
rtoes 1.37596 0 0
lowerback 6.738 -4.61229 -2.71573
upperback 1.7394 -6.3233 -2.13178
thorax -1.91208 -3.12316 -0.164029
lowerneck -4.98008 -11.3206 -4.84023
upperneck 0.669695 -14.9622 5.62359
head 1.90668 -7.39287 2.03008
lclavicle 3.07285e-14 1.19908e-14 0
lhumerus -44.5846 -35.6402 106.647
lradius 59.1166 0 0
lwrist 20.3141 0 0
lhand 19.7519 15.0959 0
lfingers 7.12502 0 0
lthumb 44.3039 38.8645 0
rclavicle 3.07285e-14 1.19908e-14 0
rhumerus -55.2369 3.9752 -97.0583
rradius 46.1277 0 0
rwrist 23.439 0 0
rhand -24.7442 3.49961 0
rfingers 7.12502 0 0
rthumb 1.75858 -746.473 0
275
root 8.51076 16.0963 -25.073 23.9954 71.7187 23.0849
lfemur -23.4064 6.80954 -23.1074
ltibia 42.7096 -0 0
lfoot -7.54952 -23.1716 0.0356179
ltoes 60.7131 -0 0
rfemur -54.1499 -4.79618 14.6986
rtibia 80.0686 -0 0
rfoot 7.78365 -0.382564 0.00447929
rtoes 2.57491 -0 0
lowerback 6.81987 -4.75518 -2.93359
upperback 1.99961 -6.51341 -2.24818
thorax -1.67216 -3.21913 -0.160653
lowerneck -4.81236 -11.4175 -4.93115
upperneck 0.759116 -15.1023 5.76848
head 1.93742 -7.46325 2.08955
lclavicle 0 0 0
lhumerus -44.5624 -36.1988 106.589
lradius 59.2456 -0 0
lwrist 20.2634 0 0
lhand 19.5308 15.2459 -0.0017362
lfingers 0 -0 0
lthumb 44.0974 39.0898 -0.0024354
rclavicle 0 0 0
rhumerus -56.0086 4.35969 -97.3918
rradius 47.9621 -0 0
rwrist 22.862 0 0
rhand -25.3288 3.66605 -0.00509684
rfingers 0 -0 0
rthumb 1.19393 -26.3059 -0.00494198
276
root 8.58203 16.0502 -25.0204 25.0891 72.5853 24.8443
lfemur -22.8324 6.65921 -23.1224
ltibia 43.5862 -0 0
lfoot -8.75112 -23.7376 0.0593739
ltoes 57.774 -0 0
rfemur -53.6211 -4.18442 14.9027
rtibia 77.5299 -0 0
rfoot 8.19564 -0.174925 0.00746565
rtoes 3.77387 -0 0
lowerback 6.90229 -4.89776 -3.1517
upperback 2.26031 -6.703 -2.36549
thorax -1.43222 -3.31512 -0.157679
lowerneck -4.64442 -11.5142 -5.02239
upperneck 0.848229 -15.2426 5.91324
head 1.96809 -7.53366 2.149
lclavicle 0 0 0
lhumerus -44.5393 -36.7574 106.531
lradius 59.3746 -0 0
lwrist 20.2128 0 0
lhand 19.3097 15.3958 -0.00289369
lfingers 0 -0 0
lthumb 43.891 39.315 -0.00405904
rclavicle 0 0 0
rhumerus -56.7829 4.73966 -97.7305
rradius 49.7965 -0 0
rwrist 22.285 0 0
rhand -25.9135 3.83254 -0.00849506
rfingers 0 -0 0
rthumb 0.629261 -26.1388 -0.00823692
277
root 8.65329 16.0042 -24.9679 26.3308 73.4407 26.7501
lfemur -22.2585 6.50904 -23.139
ltibia 44.4629 -0 0
lfoot -9.95289 -24.304 0.071255
ltoes 54.8349 -0 0
rfemur -53.0906 -3.57457 15.1123
rtibia 74.9911 -0 0
rfoot 8.60763 0.032731 0.00895888
rtoes 4.97282 -0 0
lowerback 6.98528 -5.04002 -3.37006
upperback 2.5215 -6.89205 -2.48372
thorax -1.19227 -3.41112 -0.155108
lowerneck -4.47626 -11.6106 -5.11394
upperneck 0.937034 -15.3832 6.05788
head 1.99869 -7.60411 2.20841
lclavicle 0 0 0
lhumerus -44.5154 -37.316 106.472
lradius 59.5036 -0 0
lwrist 20.1621 0 0
lhand 19.0886 15.5458 -0.00347244
lfingers 0 -0 0
lthumb 43.6845 39.5403 -0.00487088
rclavicle 0 0 0
rhumerus -57.56 5.11502 -98.0747
rradius 51.6309 -0 0
rwrist 21.708 0 0
rhand -26.4982 3.99905 -0.0101943
rfingers 0 -0 0
rthumb 0.0645877 -25.9716 -0.00988448
278
root 8.72455 15.9582 -24.9153 27.7419 74.283 28.824
lfemur -21.6848 6.35904 -23.157
ltibia 45.3395 -0 0
lfoot -11.1547 -24.8704 0.071255
ltoes 51.8958 -0 0
rfemur -52.5581 -2.96669 15.3275
rtibia 72.4523 -0 0
rfoot 9.01964 0.240392 0.00895888
rtoes 6.17177 -0 0
lowerback 7.06884 -5.18197 -3.58868
upperback 2.78319 -7.08056 -2.60286
thorax -0.952292 -3.50712 -0.152939
lowerneck -4.30789 -11.7068 -5.20582
upperneck 1.02553 -15.5239 6.20238
head 2.02923 -7.67458 2.2678
lclavicle 0 0 0
lhumerus -44.4905 -37.8746 106.412
lradius 59.6326 -0 0
lwrist 20.1115 0 0
lhand 18.8675 15.6958 -0.00347244
lfingers 0 -0 0
lthumb 43.478 39.7656 -0.00487088
rclavicle 0 0 0
rhumerus -58.3397 5.48569 -98.4241
rradius 53.4654 -0 0
rwrist 21.1311 0 0
rhand -27.0828 4.16557 -0.0101943
rfingers 0 -0 0
rthumb -0.500088 -25.8044 -0.00988448
279
root 8.79581 15.9122 -24.8628 29.3478 75.1099 31.0914
lfemur -21.1112 6.20922 -23.1766
ltibia 46.2162 -0 0
lfoot -12.3565 -25.4368 0.0593739
ltoes 48.9567 -0 0
rfemur -52.0236 -2.36083 15.5482
rtibia 69.9135 -0 0
rfoot 9.43163 0.448048 0.00746565
rtoes 7.37072 -0 0
lowerback 7.15295 -5.3236 -3.80755
upperback 3.04538 -7.26853 -2.72291
thorax -0.712295 -3.60314 -0.151173
lowerneck -4.13931 -11.8026 -5.29802
upperneck 1.11372 -15.6649 6.34676
head 2.05969 -7.74509 2.32716
lclavicle 0 0 0
lhumerus -44.4647 -38.4332 106.352
lradius 59.7616 -0 0
lwrist 20.0608 0 0
lhand 18.6464 15.8458 -0.00289369
lfingers 0 -0 0
lthumb 43.2715 39.9909 -0.00405904
rclavicle 0 0 0
rhumerus -59.1222 5.85158 -98.7787
rradius 55.2998 -0 0
rwrist 20.5541 0 0
rhand -27.6675 4.33208 -0.00849506
rfingers 0 -0 0
rthumb -1.06476 -25.6372 -0.00823692
280
root 8.86708 15.8661 -24.8102 31.1781 75.9184 33.5818
lfemur -20.5376 6.05961 -23.1976
ltibia 47.0928 -0 0
lfoot -13.5581 -26.0028 0.0356179
ltoes 46.0176 -0 0
rfemur -51.487 -1.75706 15.7745
rtibia 67.3748 -0 0
rfoot 9.84362 0.655687 0.00447929
rtoes 8.56968 -0 0
lowerback 7.23763 -5.46491 -4.02668
upperback 3.30808 -7.45596 -2.84389
thorax -0.472275 -3.69916 -0.149809
lowerneck -3.97051 -11.8983 -5.39054
upperneck 1.2016 -15.8061 6.49101
head 2.09009 -7.81563 2.3865
lclavicle 0 0 0
lhumerus -44.438 -38.9917 106.29
lradius 59.8906 -0 0
lwrist 20.0102 0 0
lhand 18.4253 15.9957 -0.0017362
lfingers 0 -0 0
lthumb 43.0651 40.2161 -0.0024354
rclavicle 0 0 0
rhumerus -59.9075 6.21261 -99.1386
rradius 57.1342 -0 0
rwrist 19.9771 0 0
rhand -28.2522 4.49857 -0.00509684
rfingers 0 -0 0
rthumb -1.62943 -25.4701 -0.00494198
281
root 8.93834 15.8201 -24.7577 33.2669 76.7053 36.3297
lfemur -19.9642 5.91022 -23.2202
ltibia 47.9695 0 0
lfoot -14.7594 -26.5681 0
ltoes 43.0785 0 0
rfemur -50.9481 -1.15544 16.0063
rtibia 64.836 0 0
rfoot 10.2556 0.8633 0
rtoes 9.76863 0 0
lowerback 7.32287 -5.60589 -4.24608
upperback 3.57129 -7.64283 -2.96578
thorax -0.232231 -3.79519 -0.148849
lowerneck -3.80149 -11.9936 -5.48338
upperneck 1.28917 -15.9475 6.63514
head 2.12042 -7.8862 2.4458
lclavicle -5.5933e-14 -3.37934e-14 0
lhumerus -44.4102 -39.5502 106.228
lradius 60.0196 0 0
lwrist 19.9595 0 0
lhand 18.2042 16.1457 0
lfingers 7.12502 0 0
lthumb 42.8586 40.4414 0
rclavicle -5.5933e-14 -3.37934e-14 0
rhumerus -60.6956 6.56869 -99.5037
rradius 58.9686 0 0
rwrist 19.4001 0 0
rhand -28.8368 4.66501 0
rfingers 7.12502 0 0
rthumb -2.19408 -745.303 0
282
root 9.00757 15.771 -24.7018 34.5324 77.0928 38.279
lfemur -19.25 6.07664 -23.0506
ltibia 48.6476 -0 0
lfoot -14.5774 -27.3649 -0.0075991
ltoes 44.6228 -0 0
rfemur -49.6883 -1.15918 16.6178
rtibia 63.2716 -0 0
rfoot 9.9762 -1.94629 0.0414039
rtoes 14.4317 -0 0
lowerback 7.33219 -5.6253 -4.52615
upperback 3.73291 -7.66899 -3.1084
thorax -0.0493247 -3.81193 -0.15396
lowerneck -3.58337 -12.0781 -5.6133
upperneck 1.56049 -16.0804 6.72583
head 2.20447 -7.95412 2.49271
lclavicle 0 0 0
lhumerus -44.1765 -39.8646 105.916
lradius 60.066 -0 0
lwrist 19.3931 0 0
lhand 18.062 15.7774 0.00274327
lfingers 0 -0 0
lthumb 42.7254 40.1187 0.00225076
rclavicle 0 0 0
rhumerus -61.7547 7.7715 -99.9205
rradius 60.6192 -0 0
rwrist 18.9135 0 0
rhand -28.895 3.07067 0.00487232
rfingers 0 -0 0
rthumb -2.25032 -26.8967 0.00470369
283
root 9.07679 15.7219 -24.6459 35.8958 77.47 40.3258
lfemur -18.5351 6.24094 -22.8789
ltibia 49.3257 -0 0
lfoot -14.3952 -28.1617 -0.012666
ltoes 46.1671 -0 0
rfemur -48.4287 -1.17637 17.2291
rtibia 61.7073 -0 0
rfoot 9.69512 -4.75604 0.0690625
rtoes 19.0947 -0 0
lowerback 7.3416 -5.64466 -4.80623
upperback 3.8946 -7.69476 -3.2511
thorax 0.133587 -3.82865 -0.159126
lowerneck -3.36499 -12.162 -5.74359
upperneck 1.83177 -16.2137 6.81592
head 2.28848 -8.02211 2.53953
lclavicle 0 0 0
lhumerus -43.9396 -40.178 105.601
lradius 60.1125 -0 0
lwrist 18.8268 0 0
lhand 17.9197 15.4091 0.00457218
lfingers 0 -0 0
lthumb 42.5922 39.796 0.00375131
rclavicle 0 0 0
rhumerus -62.8259 8.96642 -100.361
rradius 62.2699 -0 0
rwrist 18.4268 0 0
rhand -28.9534 1.47633 0.00812263
rfingers 0 -0 0
rthumb -2.30666 -28.4904 0.0078415
